<svg width="1100" height="240" viewBox="0 0 1100 240" fill="none" xmlns="http://www.w3.org/2000/svg">
<rect width="1100" height="240" fill="white"/>
<path d="M472.648 134H464.008L456.472 122.48L448.888 134H440.488L452.2 116.912L440.968 100.4H449.608L456.664 111.296L463.768 100.4H472.168L460.936 116.816L472.648 134ZM503.772 134H478.188V100.4H503.532V106.976H485.532V113.792H501.372V120.368H485.532V127.424H503.772V134ZM540.623 95.696H546.815L525.551 140.144H519.359L540.623 95.696ZM566.076 95.696H572.268L551.004 140.144H544.812L566.076 95.696ZM619.072 134H610.432L603.232 123.248H597.424V134H590.032V100.4H605.392C609.392 100.4 612.496 101.376 614.704 103.328C616.944 105.28 618.064 108 618.064 111.488V111.584C618.064 114.304 617.392 116.528 616.048 118.256C614.736 119.952 613.008 121.2 610.864 122L619.072 134ZM610.576 111.968V111.872C610.576 110.272 610.064 109.072 609.04 108.272C608.016 107.472 606.592 107.072 604.768 107.072H597.424V116.72H604.912C606.736 116.72 608.128 116.288 609.088 115.424C610.08 114.56 610.576 113.408 610.576 111.968ZM658.944 117.2C658.944 119.6 658.496 121.856 657.6 123.968C656.704 126.048 655.456 127.888 653.856 129.488C652.288 131.056 650.4 132.304 648.192 133.232C646.016 134.128 643.632 134.576 641.04 134.576C638.448 134.576 636.064 134.128 633.888 133.232C631.712 132.304 629.824 131.072 628.224 129.536C626.656 127.968 625.424 126.144 624.528 124.064C623.664 121.952 623.232 119.696 623.232 117.296V117.2C623.232 114.8 623.68 112.56 624.576 110.48C625.472 108.368 626.704 106.528 628.272 104.96C629.872 103.36 631.76 102.112 633.936 101.216C636.144 100.288 638.544 99.824 641.136 99.824C643.728 99.824 646.112 100.288 648.288 101.216C650.464 102.112 652.336 103.344 653.904 104.912C655.504 106.448 656.736 108.272 657.6 110.384C658.496 112.464 658.944 114.704 658.944 117.104V117.2ZM651.216 117.296V117.2C651.216 115.76 650.96 114.4 650.448 113.12C649.968 111.84 649.264 110.72 648.336 109.76C647.44 108.8 646.368 108.048 645.12 107.504C643.872 106.928 642.512 106.64 641.04 106.64C639.536 106.64 638.16 106.912 636.912 107.456C635.696 108 634.64 108.752 633.744 109.712C632.88 110.672 632.192 111.792 631.68 113.072C631.2 114.32 630.96 115.664 630.96 117.104V117.2C630.96 118.64 631.2 120 631.68 121.28C632.192 122.56 632.896 123.68 633.792 124.64C634.72 125.6 635.792 126.368 637.008 126.944C638.256 127.488 639.632 127.76 641.136 127.76C642.608 127.76 643.968 127.488 645.216 126.944C646.464 126.4 647.52 125.648 648.384 124.688C649.28 123.728 649.968 122.624 650.448 121.376C650.96 120.096 651.216 118.736 651.216 117.296Z" fill="#090A0F"/>
</svg>
